<svg width="20" height="20" viewBox="0 0 20 20" fill="none" xmlns="http://www.w3.org/2000/svg">
<path d="M0.295491 7.59795C1.62164 2.23673 7.04227 -1.03137 12.4017 0.295301C17.7626 1.62133 21.0308 7.0413 19.7047 12.4017C18.378 17.762 12.9584 21.0315 7.59777 19.7047C2.23799 18.3785 -1.03195 12.9582 0.295491 7.59795Z" fill="#223C72"/>
<path d="M17.0933 2.95175L13.0731 5.63188V0.486922C12.8536 0.416392 12.6306 0.352318 12.4032 0.295991C10.5168 -0.170925 8.62324 -0.0679553 6.90298 0.494346V5.63237L2.89856 2.96305C1.98153 3.88688 1.23639 4.99889 0.729949 6.25842L1.79045 6.96533H0.476243C0.410234 7.17321 0.349874 7.38415 0.296615 7.59881C-0.173678 9.49859 -0.0661913 11.4056 0.506907 13.1356H1.81675L0.767714 13.8351C1.27642 15.0577 2.02446 16.1724 2.96844 17.1084L6.90314 14.4857V19.5062C7.13102 19.5803 7.36294 19.6471 7.59938 19.7056C9.47619 20.1702 11.3599 20.0706 13.0733 19.5158V14.4855L17.0236 17.1187C17.9516 16.2049 18.7097 15.1019 19.23 13.8495L18.159 13.1356H19.495C19.5739 12.896 19.6445 12.6514 19.7061 12.4026C20.167 10.5393 20.0725 8.6687 19.5281 6.96549H18.1856L19.2668 6.24486C18.7681 5.01697 18.0296 3.89527 17.0933 2.95175Z" fill="#EFEBE7"/>
<path d="M5.36412 6.96571L1.65181 4.49636C1.40488 4.87096 1.1812 5.2646 0.984299 5.67649L2.92212 6.96571H5.36412ZM18.3331 4.47699C18.0838 4.1003 17.8085 3.74055 17.5097 3.39984L13.0721 6.35112V6.96571H14.592L18.3331 4.47699ZM1.67925 15.5431C1.9294 15.919 2.20522 16.2779 2.5046 16.6176L6.90185 13.6932V13.1359H5.29892L1.67925 15.5431ZM19.8455 8.25058H11.7871V0.164836C10.5654 -0.0582127 9.34918 -0.0483676 8.187 0.166611V8.25058H0.157656C-0.0608671 9.47218 -0.0461806 10.6881 0.172827 11.8494H8.187V19.8323C9.40841 20.0587 10.6246 20.0518 11.7871 19.8401V11.8494H19.8252C20.056 10.6291 20.0528 9.41327 19.8455 8.25058ZM14.6778 13.1359L18.3159 15.5553C18.5651 15.1822 18.7905 14.7897 18.9898 14.3792L17.1197 13.1357L14.6778 13.1359Z" fill="#EF3827"/>
<path d="M13.0718 1.52691V1.52755V2.17539C13.1112 2.05257 13.1316 1.93588 13.1318 1.82662C13.132 1.71945 13.1124 1.61907 13.0718 1.52691Z" fill="#303F66"/>
</svg>
